#N canvas 162 60 1004 589 16;
#N canvas 524 318 916 501 player 0;
#X obj 101 74 dac~;
#X obj 178 -40 *~;
#X obj 118 -40 *~;
#X obj 107 -107 readsf~ 2;
#X obj 247 54 tabwrite~ waveform;
#X floatatom 488 -266 5 0 100 0 Volume - -;
#X obj 426 -223 < 10;
#X obj 465 -166 / 10;
#X obj 558 -215 >= 10;
#X obj 561 -164 / 100;
#X floatatom 516 -26 5 0 1 0 - - -;
#X obj 99 -6 freeverb~;
#X obj 80 -298 symbol;
#X msg 131 -237 open music/\$1;
#X obj 672 -329 loadbang;
#X msg 29 -132 1;
#X obj 88 -363 r play;
#N canvas 308 83 650 771 server 0;
#X obj 124 60 unpack s s f;
#X obj 87 116 sel play;
#X obj 80 167 symbol;
#X obj 67 210 s play;
#X obj -64 208 sel set;
#X obj 200 329 symbol;
#X obj 328 323 f;
#X obj 160 460 f;
#X obj -40 449 f;
#X obj -63 296 t b b;
#X obj -40 401 sel reverb;
#X obj 3 482 s reverb;
#X obj 119 414 sel volume;
#X obj 200 490 s volume;
#X obj 168 150 sel pause;
#X obj 180 198 s pause;
#X text 302 -101;
#X obj 95 -129 netreceive 3000;
#X connect 0 0 1 0;
#X connect 0 0 4 0;
#X connect 0 0 14 0;
#X connect 0 1 2 1;
#X connect 0 1 5 1;
#X connect 0 2 6 1;
#X connect 1 0 2 0;
#X connect 2 0 3 0;
#X connect 4 0 9 0;
#X connect 5 0 10 0;
#X connect 5 0 12 0;
#X connect 6 0 7 1;
#X connect 6 0 8 1;
#X connect 7 0 13 0;
#X connect 8 0 11 0;
#X connect 9 0 5 0;
#X connect 9 1 6 0;
#X connect 10 0 8 0;
#X connect 12 0 7 0;
#X connect 14 0 15 0;
#X connect 17 0 0 0;
#X restore 658 -211 pd server;
#X obj 299 -362 bng 50 250 50 0 empty empty Open_File 55 20 0 15 -262144
-1 -1;
#X obj 296 -285 openpanel;
#X msg 308 -237 open \$1;
#X obj 93 -180 t b a;
#X obj 234 -97 metro 50;
#X floatatom -74 -301 5 0 100 0 Reverb - -;
#X obj -141 -261 < 10;
#X obj -114 -207 / 10;
#X obj -23 -246 >= 10;
#X obj -18 -205 / 100;
#X floatatom -67 -119 5 0 1 0 Wet - -;
#X msg 9 -61 wet \$1;
#X msg -55 83 dry \$1;
#X obj -85 -53 - 1;
#X floatatom -55 30 5 0 1 0 Dry - -;
#X obj -87 -11 * -1;
#X obj -68 -355 r reverb;
#X obj 487 -332 r volume;
#X obj 274 -196 r pause;
#X obj 313 -146 tgl 15 0 empty empty empty 17 7 0 10 -262144 -1 -1
0 1;
#X msg 367 -102 \; pd dsp \$1 \;;
#X msg 651 -291 \; volume 30 \; reverb 0 \;;
#X connect 1 0 11 1;
#X connect 2 0 11 0;
#X connect 3 0 2 0;
#X connect 3 1 1 0;
#X connect 3 2 37 0;
#X connect 5 0 6 0;
#X connect 5 0 7 0;
#X connect 5 0 8 0;
#X connect 5 0 9 0;
#X connect 6 0 7 0;
#X connect 7 0 10 0;
#X connect 8 0 9 0;
#X connect 9 0 10 0;
#X connect 10 0 1 1;
#X connect 10 0 2 1;
#X connect 11 0 0 0;
#X connect 11 0 4 0;
#X connect 11 1 0 1;
#X connect 11 1 4 0;
#X connect 12 0 13 0;
#X connect 13 0 21 0;
#X connect 14 0 39 0;
#X connect 15 0 3 0;
#X connect 15 0 37 0;
#X connect 16 0 12 0;
#X connect 18 0 19 0;
#X connect 19 0 20 0;
#X connect 20 0 21 0;
#X connect 21 0 15 0;
#X connect 21 1 3 0;
#X connect 22 0 4 0;
#X connect 23 0 24 0;
#X connect 23 0 25 0;
#X connect 23 0 26 0;
#X connect 23 0 27 0;
#X connect 24 0 25 0;
#X connect 25 0 28 0;
#X connect 26 0 27 0;
#X connect 27 0 28 0;
#X connect 28 0 29 0;
#X connect 28 0 31 0;
#X connect 29 0 11 0;
#X connect 30 0 11 0;
#X connect 31 0 33 0;
#X connect 32 0 30 0;
#X connect 33 0 32 0;
#X connect 34 0 23 0;
#X connect 35 0 5 0;
#X connect 36 0 37 0;
#X connect 37 0 38 0;
#X connect 37 0 22 0;
#X restore 360 501 pd player;
#N canvas 0 22 450 300 (subpatch) 0;
#X array waveform 500 float 1;
#A 0 0 0 0 0 0 0 0 0 0 0 0 0 0 0 0 0 0 0 0 0 0 0 0 0 0 0 0 0 0 0 0
0 0 0 0 0 0 0 0 0 0 0 0 0 0 0 0 0 0 0 0 0 0 0 0 0 0 0 0 0 0 0 0 0 0
0 0 0 0 0 0 0 0 0 0 0 0 0 0 0 0 0 0 0 0 0 0 0 0 0 0 0 0 0 0 0 0 0 0
0 0 0 0 0 0 0 0 0 0 0 0 0 0 0 0 0 0 0 0 0 0 0 0 0 0 0 0 0 0 0 0 0 0
0 0 0 0 0 0 0 0 0 0 0 0 0 0 0 0 0 0 0 0 0 0 0 0 0 0 0 0 0 0 0 0 0 0
0 0 0 0 0 0 0 0 0 0 0 0 0 0 0 0 0 0 0 0 0 0 0 0 0 0 0 0 0 0 0 0 0 0
0 0 0 0 0 0 0 0 0 0 0 0 0 0 0 0 0 0 0 0 0 0 0 0 0 0 0 0 0 0 0 0 0 0
0 0 0 0 0 0 0 0 0 0 0 0 0 0 0 0 0 0 0 0 0 0 0 0 0 0 0 0 0 0 0 0 0 0
0 0 0 0 0 0 0 0 0 0 0 0 0 0 0 0 0 0 0 0 0 0 0 0 0 0 0 0 0 0 0 0 0 0
0 0 0 0 0 0 0 0 0 0 0 0 0 0 0 0 0 0 0 0 0 0 0 0 0 0 0 0 0 0 0 0 0 0
0 0 0 0 0 0 0 0 0 0 0 0 0 0 0 0 0 0 0 0 0 0 0 0 0 0 0 0 0 0 0 0 0 0
0 0 0 0 0 0 0 0 0 0 0 0 0 0 0 0 0 0 0 0 0 0 0 0 0 0 0 0 0 0 0 0 0 0
0 0 0 0 0 0 0 0 0 0 0 0 0 0 0 0 0 0 0 0 0 0 0 0 0 0 0 0 0 0 0 0 0 0
0 0 0 0 0 0 0 0 0 0 0 0 0 0 0 0 0 0 0 0 0 0 0 0 0 0 0 0 0 0 0 0 0 0
0 0 0 0 0 0 0 0 0 0 0 0 0 0 0 0 0 0 0 0 0 0 0 0 0 0 0;
#X coords 0 1 499 -1 1000 500 1;
#X restore -15 -22 graph;
#N canvas 8 103 609 380 license 1;
#X text 3 -53 Copyright (c) 2012 Sean Whalen Permission is hereby granted
\, free of charge \, to any person obtaining a copy of this software
and associated documentation files (the "Software") \, to deal in the
Software without restriction \, including without limitation the rights
to use \, copy \, modify \, merge \, publish \, distribute \, sublicense
\, and/or sell copies of the Software \, and to permit persons to whom
the Software is furnished to do so \, subject to the following conditions:
The above copyright notice and this permission notice shall be included
in all copies or substantial portions of the Software. THE SOFTWARE
IS PROVIDED "AS IS" \, WITHOUT WARRANTY OF ANY KIND \, EXPRESS OR IMPLIED
\, INCLUDING BUT NOT LIMITED TO THE WARRANTIES OF MERCHANTABILITY \,
FITNESS FOR A PARTICULAR PURPOSE AND NONINFRINGEMENT. IN NO EVENT SHALL
THE AUTHORS OR COPYRIGHT HOLDERS BE LIABLE FOR ANY CLAIM \, DAMAGES
OR OTHER LIABILITY \, WHETHER IN AN ACTION OF CONTRACT \, TORT OR OTHERWISE
\, ARISING FROM \, OUT OF OR IN CONNECTION WITH THE SOFTWARE OR THE
USE OR OTHER DEALINGS IN THE SOFTWARE.;
#X restore 491 501 pd license;
